<!DOCTYPE svg PUBLIC "-//W3C//DTD SVG 1.1//EN" "http://www.w3.org/Graphics/SVG/1.1/DTD/svg11.dtd">
<!-- Uploaded to: SVG Repo, www.svgrepo.com, Transformed by: SVG Repo Mixer Tools -->
<svg height="256px" width="256px" version="1.1" id="Layer_1" xmlns="http://www.w3.org/2000/svg" xmlns:xlink="http://www.w3.org/1999/xlink" viewBox="0 0 512.53 512.53" xml:space="preserve" fill="#000000" transform="rotate(-45)" stroke="#000000">
<g id="SVGRepo_bgCarrier" stroke-width="0"/>
<g id="SVGRepo_tracerCarrier" stroke-linecap="round" stroke-linejoin="round" stroke="#CCCCCC" stroke-width="5.12526"/>
<g id="SVGRepo_iconCarrier"> <g transform="translate(1)"> <path style="fill:#FDCC00;" d="M19.939,283.57c0,0-21.333,13.653-4.267,35.84c0,0-36.693,42.667,51.2,52.053 c0,0,27.307-23.893,39.253,7.68c0,0,54.613-7.68,91.307-23.893c0,0,29.867-11.093,39.253,0c10.24,11.093,70.827,43.52,82.773,7.68 c0,0,17.92-5.973,23.893,11.947c0,0,34.133,15.36,46.933-11.947l11.947-4.267c0,0,29.867,23.893,42.667-7.68l11.947-7.68 l8.533-0.853c0,0,58.027-24.747,29.867-75.093c0,0-11.947,21.333-19.627,27.307c0,0-70.827,80.213-267.093,11.947 c0,0-39.253-16.213-126.293-5.12C83.086,302.343,60.899,304.05,19.939,283.57"/> <path style="fill:#FFE100;" d="M19.939,283.57c40.96,20.48,63.147,18.773,63.147,18.773c87.04-10.24,126.293,5.12,126.293,5.12 c196.267,69.12,267.093-11.947,267.093-11.947c7.68-5.973,19.627-27.307,19.627-27.307v-4.267c0,0-1.707-19.627-77.653-19.627 c0,0-59.733,4.267-67.413-23.893c0,0-10.24-5.12-11.947,4.267l-15.36-11.947c0,0-5.12-20.48-19.627-7.68l-11.947-7.68 c0,0-2.56-14.507-16.213-7.68c0,0-11.093-4.267-16.213-11.947c0,0-2.56-11.093-11.947-4.267c0,0-11.093,1.707-23.893-16.213 s-53.76-29.013-43.52,11.947c0,0-14.507,24.747-63.147,19.627c0,0-22.187-2.56-31.573-15.36c-8.533-12.8-49.493-17.92-46.08,4.267 c2.56,21.333-4.267,23.04-4.267,23.04s-27.307,35.84-15.36,79.36V283.57z"/> <path style="fill:#63D3FD;" d="M60.899,298.93c14.507-15.36,23.893-37.547,23.893-60.587c0-30.72-15.36-57.173-38.4-73.387 c-5.12,1.707-7.68,5.973-6.827,12.8c2.56,21.333-4.267,23.04-4.267,23.04s-27.307,35.84-15.36,79.36v4.267 C37.006,292.103,50.659,296.37,60.899,298.93"/> <g> <path style="fill:#FFFFFF;" d="M41.273,322.823c-10.24-11.947-7.68-21.333-3.413-27.307c-5.12-2.56-11.093-5.12-17.92-7.68 c0,0-21.333,13.653-4.267,35.84c0,0-36.693,42.667,51.2,52.053c0,0,1.707-1.707,4.267-3.413 C10.553,357.81,41.273,322.823,41.273,322.823"/> <path style="fill:#FFFFFF;" d="M45.539,286.983v-4.267c-11.947-42.667,15.36-78.507,15.36-78.507s6.827-1.707,4.267-23.893 c-0.853-5.973,1.707-10.24,6.827-11.947c-15.36-5.12-34.987-2.56-32.427,11.947c2.56,22.187-4.267,23.893-4.267,23.893 s-27.307,35.84-15.36,79.36v4.267c40.96,19.627,63.147,17.92,63.147,17.92c4.267-0.853,7.68-0.853,11.947-0.853 C83.939,302.343,67.726,298.077,45.539,286.983"/> </g> <g> <path style="fill:#FFA800;" d="M496.953,266.503c0,0-10.24,18.773-17.92,26.453c0,32.427-17.92,48.64-17.92,48.64l-17.92,11.947 l-11.947,7.68c-2.56,5.973-16.213-1.707-19.627,0.853c10.24,5.12,26.453,8.533,34.133-12.8l11.947-7.68l8.533-0.853 C466.233,341.597,524.259,316.85,496.953,266.503"/> <path style="fill:#FFA800;" d="M393.699,242.61c75.947,0,77.653,19.627,77.653,19.627v4.267c0,0-11.947,21.333-19.627,27.307 c0,0-31.573,35.84-110.08,39.253c97.28,4.267,134.827-39.253,134.827-39.253c7.68-5.973,19.627-27.307,19.627-27.307v-4.267 c0,0-1.707-19.627-77.653-19.627C418.446,242.61,393.699,242.61,393.699,242.61z"/> </g> <path d="M135.993,259.677c0,5.12-3.413,8.533-8.533,8.533c-5.12,0-8.533-3.413-8.533-8.533s3.413-8.533,8.533-8.533 C132.579,251.143,135.993,254.557,135.993,259.677"/> <path d="M135.993,225.543c0,5.12-3.413,8.533-8.533,8.533c-5.12,0-8.533-3.413-8.533-8.533c0-5.12,3.413-8.533,8.533-8.533 C132.579,217.01,135.993,220.423,135.993,225.543"/> <path d="M294.713,387.677c-24.747,0-56.32-17.92-64-27.307c-0.853-0.853-4.267-1.707-8.533-1.707 c-10.24,0-22.187,4.267-22.187,4.267c-36.693,17.067-90.453,23.893-93.013,24.747c-4.267,0.853-7.68-1.707-9.387-5.12 c-4.267-11.093-9.387-11.093-11.093-11.093c-5.973,0-12.8,5.12-14.507,6.827c-1.707,1.707-4.267,2.56-6.827,1.707 c-36.693-3.413-58.027-13.653-64-29.867c-5.12-11.947,0-23.04,3.413-29.867c-4.267-6.827-5.973-14.507-5.12-21.333 c2.56-13.653,13.653-20.48,14.507-21.333c2.56-1.707,5.973-1.707,8.533-0.853c34.987,17.067,54.613,17.92,58.027,17.92 c20.48-2.56,39.253-3.413,57.173-3.413c48.64,0,72.533,9.387,73.387,9.387c51.2,17.92,98.987,27.307,140.8,27.307 c83.627,0,116.053-36.693,116.907-36.693c0-0.853,0.853-0.853,1.707-0.853c4.267-3.413,12.8-16.213,17.067-24.747 c1.707-2.56,4.267-4.267,7.68-4.267l0,0c3.413,0,5.973,1.707,7.68,4.267c8.533,16.213,11.093,32.427,5.973,46.933 c-9.387,26.453-38.4,40.107-40.107,40.107c-0.853,0-1.707,0.853-2.56,0.853h-5.973l-7.68,5.12 c-7.68,16.213-20.48,18.773-27.307,18.773c-10.24,0-18.773-5.12-23.893-7.68l-4.267,1.707c-6.827,11.093-17.92,17.92-32.427,17.92 c-12.8,0-23.893-5.12-23.893-5.12c-2.56-0.853-3.413-2.56-4.267-5.12c-1.707-5.12-5.12-7.68-9.387-6.827 C320.313,381.703,309.219,387.677,294.713,387.677z M222.179,341.597c9.387,0,16.213,2.56,21.333,7.68 c4.267,5.12,31.573,21.333,52.053,21.333c11.947,0,15.36-5.973,17.067-10.24c0.853-2.56,2.56-4.267,5.12-5.12 c0.853,0,4.267-1.707,9.387-1.707c10.24,0,18.773,5.12,23.893,14.507c3.413,0.853,8.533,2.56,14.507,2.56 c9.387,0,15.36-3.413,18.773-11.093c0.853-1.707,2.56-3.413,5.12-4.267l11.947-4.267c2.56-0.853,5.973,0,7.68,1.707 c2.56,1.707,10.24,6.827,17.067,6.827c2.56,0,7.68,0,12.8-11.093c0.853-1.707,1.707-2.56,3.413-4.267l11.947-7.68 c0.853-0.853,2.56-1.707,4.267-1.707h6.827c5.12-2.56,23.893-12.8,29.013-29.867c1.707-5.973,2.56-11.093,0.853-17.92 c-3.413,5.973-8.533,11.093-11.947,14.507c-5.12,5.973-42.667,41.813-128.853,41.813c-43.52,0-93.013-9.387-146.773-28.16 c-0.853,0-22.187-8.533-67.413-8.533c-17.067,0-35.84,0.853-55.467,3.413c0,0-0.853,0-2.56,0c-5.973,0-26.453-0.853-60.587-17.067 c-1.707,1.707-3.413,4.267-3.413,6.827c-0.853,4.267,0.853,8.533,5.12,12.8c2.56,3.413,2.56,7.68,0,11.093 c0,0-8.533,10.24-5.12,17.92c2.56,5.12,11.093,15.36,46.933,18.773c4.267-3.413,12.8-8.533,23.04-8.533 c5.973,0,17.067,2.56,23.893,15.36c15.36-2.56,54.613-9.387,81.92-22.187C194.873,346.717,209.379,341.597,222.179,341.597z"/> <path d="M352.739,344.157c-43.52,0-93.013-9.387-146.773-28.16c-0.853,0-22.187-8.533-67.413-8.533 c-17.067,0-35.84,0.853-55.467,3.413c-0.853,0-0.853,0-1.707,0c-5.973,0-29.013-1.707-65.707-19.627 c-2.56-1.707-5.12-4.267-5.12-7.68v-2.56c-11.093-46.933,17.067-83.627,17.92-85.333c0.853-0.853,0.853-1.707,1.707-1.707 c0.853-0.853,1.707-5.12,0-15.36c0-7.68,2.56-13.653,5.12-16.213c5.12-5.12,12.8-8.533,22.187-8.533 c11.947,0,28.16,4.267,35.84,14.507c5.973,7.68,20.48,11.947,25.6,12.8c3.413,0,7.68,0.853,11.093,0.853 c25.6,0,37.547-9.387,41.813-13.653c-1.707-11.093-0.853-19.627,4.267-26.453c4.267-5.12,11.093-8.533,18.773-8.533 c12.8,0,29.013,8.533,36.693,19.627c6.827,9.387,11.947,11.093,14.507,11.947c2.56-1.707,5.12-2.56,7.68-2.56 c6.827,0,11.947,5.12,14.507,11.093c1.707,2.56,5.12,5.12,8.533,6.827c1.707-0.853,4.267-0.853,5.973-0.853 c8.533,0,14.507,5.973,17.067,12.8l4.267,3.413c2.56-1.707,5.973-2.56,8.533-2.56c10.24,0,15.36,8.533,17.92,15.36l6.827,5.12 c2.56-0.853,5.12-1.707,7.68-1.707c4.267,0,8.533,1.707,9.387,2.56c2.56,0.853,4.267,3.413,4.267,5.973 c3.413,12.8,28.16,17.92,50.347,17.92c4.267,0,7.68,0,7.68,0l0,0c75.947,0,86.187,19.627,86.187,27.307v4.267 c0,1.707,0,2.56-0.853,4.267c-1.707,3.413-12.8,23.04-21.333,29.867C476.473,307.463,438.926,344.157,352.739,344.157z M138.553,290.397c48.64,0,72.533,9.387,73.387,9.387c51.2,17.92,98.987,27.307,140.8,27.307 c82.773,0,116.053-36.693,116.907-36.693l0.853-0.853c4.267-3.413,11.947-14.507,16.213-23.04l0,0 c-1.707-2.56-13.653-12.8-69.12-12.8c0,0-3.413,0-8.533,0c-19.627,0-52.907-3.413-64-23.04c-0.853,0.853-1.707,1.707-3.413,2.56 c-2.56,0.853-5.973,0.853-8.533-0.853l-16.213-11.947c-1.707-0.853-2.56-2.56-3.413-4.267c-0.853-2.56-2.56-5.12-3.413-5.12 c0,0-0.853,0-2.56,1.707c-2.56,2.56-6.827,2.56-10.24,0.853l-11.947-7.68c-1.707-0.853-3.413-3.413-3.413-5.12 c0-0.853-0.853-2.56-1.707-2.56c0,0-0.853,0-2.56,0.853c-2.56,0.853-4.267,0.853-6.827,0c-1.707-0.853-13.653-5.973-19.627-15.36 c0,0,0-0.853-0.853-0.853c-0.853,0.853-1.707,0.853-2.56,0.853c0,0-0.853,0-2.56,0c-5.12,0-17.067-1.707-29.867-19.627 c-5.12-6.827-15.36-12.8-23.04-12.8c-2.56,0-4.267,0.853-5.12,1.707s-2.56,5.12,0,15.36c0.853,2.56,0,4.267-0.853,5.973 c-0.853,0.853-14.507,24.747-58.88,24.747c-4.267,0-8.533,0-12.8-0.853c-2.56,0-26.453-4.267-37.547-18.773 c0-4.267-9.387-8.533-19.627-8.533c-5.12,0-8.533,1.707-9.387,2.56c0,0-0.853,0.853,0,2.56c2.56,20.48-2.56,28.16-6.827,31.573 c-4.267,5.973-23.04,35.84-13.653,69.973v0.853c32.427,14.507,50.347,15.36,53.76,15.36 C101.859,291.25,120.633,290.397,138.553,290.397z"/> <path d="M352.739,310.023c-40.107,0-85.333-8.533-134.827-26.453c-4.267-1.707-6.827-6.827-5.12-11.093 c1.707-4.267,6.827-6.827,11.093-5.12c47.787,17.067,91.307,25.6,128.853,25.6c5.12,0,8.533,3.413,8.533,8.533 C361.273,306.61,357.006,310.023,352.739,310.023z"/> <path d="M224.739,213.597c-2.56,0-4.267-0.853-5.973-2.56c-3.413-3.413-3.413-8.533,0-11.947l33.28-33.28 c3.413-3.413,8.533-3.413,11.947,0c3.413,3.413,3.413,8.533,0,11.947l-33.28,33.28 C229.006,212.743,226.446,213.597,224.739,213.597z"/> <path d="M257.166,232.37c-2.56,0-4.267-0.853-5.973-2.56c-3.413-3.413-3.413-8.533,0-11.947l32.427-32.427 c3.413-3.413,8.533-3.413,11.947,0c3.413,3.413,3.413,8.533,0,11.947l-32.427,32.427 C261.433,231.517,258.873,232.37,257.166,232.37z"/> <path d="M287.886,244.317c-2.56,0-4.267-0.853-5.973-2.56c-3.413-3.413-3.413-8.533,0-11.947l31.573-31.573 c3.413-3.413,8.533-3.413,11.947,0c3.413,3.413,3.413,8.533,0,11.947l-31.573,31.573 C292.153,243.463,290.446,244.317,287.886,244.317z"/> <path d="M60.899,307.463c-0.853,0-1.707,0-1.707,0c-13.653-3.413-28.16-8.533-42.667-16.213c-2.56-1.707-5.12-4.267-5.12-7.68 v-2.56c-11.947-46.933,16.213-83.627,17.067-85.333c0.853-0.853,0.853-1.707,1.707-1.707c0.853-0.853,1.707-5.12,0-15.36 c-0.853-9.387,4.267-17.92,12.8-22.187c2.56-0.853,5.973-0.853,8.533,0.853c26.453,18.773,41.813,48.64,41.813,81.067 c0,24.747-9.387,48.64-26.453,66.56C65.166,306.61,63.459,307.463,60.899,307.463z M27.619,278.45 c10.24,5.12,20.48,8.533,29.867,11.093c11.947-14.507,18.773-32.427,18.773-51.2c0-23.893-10.24-46.933-28.16-62.293 c2.56,20.48-2.56,28.16-6.827,31.573C37.006,213.597,18.233,243.463,27.619,278.45C27.619,277.597,27.619,278.45,27.619,278.45z"/> <path d="M50.659,174.343c-23.04,0-42.667-19.627-42.667-42.667c0-5.12,3.413-8.533,8.533-8.533s8.533,3.413,8.533,8.533 c0,14.507,11.093,25.6,25.6,25.6c5.12,0,8.533,3.413,8.533,8.533S55.779,174.343,50.659,174.343z"/> </g> </g>
</svg>